<svg width="1200" height="760" viewBox="0 0 1200 760" xmlns="http://www.w3.org/2000/svg">
  <rect width="1200" height="760" fill="#f8fafc"/>

  <text x="600" y="55" text-anchor="middle" font-family="Segoe UI, Arial" font-size="32" font-weight="700" fill="#0f172a">
    Enterprise Operational Intelligence Architecture
  </text>
  <text x="600" y="88" text-anchor="middle" font-family="Segoe UI, Arial" font-size="15" fill="#475569">
    Illustrative architecture for workflow management, auditability, reporting, analytics, and decision support
  </text>

  <rect x="430" y="125" width="340" height="75" rx="16" fill="#ffffff" stroke="#cbd5e1" stroke-width="2"/>
  <text x="600" y="154" text-anchor="middle" font-family="Segoe UI, Arial" font-size="20" font-weight="700" fill="#0f172a">End Users</text>
  <text x="600" y="181" text-anchor="middle" font-family="Segoe UI, Arial" font-size="14" fill="#475569">Staff • Managers • Analysts • Leaders</text>

  <line x1="600" y1="200" x2="600" y2="235" stroke="#64748b" stroke-width="3"/>
  <polygon points="600,245 592,232 608,232" fill="#64748b"/>

  <rect x="430" y="245" width="340" height="75" rx="16" fill="#ffffff" stroke="#cbd5e1" stroke-width="2"/>
  <text x="600" y="274" text-anchor="middle" font-family="Segoe UI, Arial" font-size="20" font-weight="700" fill="#0f172a">Web Application</text>
  <text x="600" y="301" text-anchor="middle" font-family="Segoe UI, Arial" font-size="14" fill="#475569">User experience • Role-based access • Forms</text>

  <line x1="600" y1="320" x2="600" y2="355" stroke="#64748b" stroke-width="3"/>
  <polygon points="600,365 592,352 608,352" fill="#64748b"/>

  <rect x="430" y="365" width="340" height="85" rx="16" fill="#ffffff" stroke="#cbd5e1" stroke-width="2"/>
  <text x="600" y="396" text-anchor="middle" font-family="Segoe UI, Arial" font-size="20" font-weight="700" fill="#0f172a">Business Services</text>
  <text x="600" y="423" text-anchor="middle" font-family="Segoe UI, Arial" font-size="14" fill="#475569">Workflow logic • Validation rules • Policy controls</text>

  <line x1="600" y1="450" x2="600" y2="485" stroke="#64748b" stroke-width="3"/>
  <line x1="600" y1="485" x2="380" y2="485" stroke="#64748b" stroke-width="3"/>
  <line x1="600" y1="485" x2="820" y2="485" stroke="#64748b" stroke-width="3"/>
  <polygon points="380,495 372,482 388,482" fill="#64748b"/>
  <polygon points="820,495 812,482 828,482" fill="#64748b"/>

  <rect x="220" y="495" width="320" height="90" rx="16" fill="#ffffff" stroke="#cbd5e1" stroke-width="2"/>
  <text x="380" y="530" text-anchor="middle" font-family="Segoe UI, Arial" font-size="20" font-weight="700" fill="#0f172a">Primary Data</text>
  <text x="380" y="557" text-anchor="middle" font-family="Segoe UI, Arial" font-size="14" fill="#475569">Operational records • Status • Relationships</text>

  <rect x="660" y="495" width="320" height="90" rx="16" fill="#ffffff" stroke="#cbd5e1" stroke-width="2"/>
  <text x="820" y="530" text-anchor="middle" font-family="Segoe UI, Arial" font-size="20" font-weight="700" fill="#0f172a">Audit Events</text>
  <text x="820" y="557" text-anchor="middle" font-family="Segoe UI, Arial" font-size="14" fill="#475569">Append-only history • Actor • Timestamp</text>

  <line x1="380" y1="585" x2="380" y2="620" stroke="#64748b" stroke-width="3"/>
  <line x1="820" y1="585" x2="820" y2="620" stroke="#64748b" stroke-width="3"/>
  <line x1="380" y1="620" x2="820" y2="620" stroke="#64748b" stroke-width="3"/>
  <line x1="600" y1="620" x2="600" y2="640" stroke="#64748b" stroke-width="3"/>
  <polygon points="600,650 592,637 608,637" fill="#64748b"/>

  <rect x="430" y="650" width="340" height="75" rx="16" fill="#ffffff" stroke="#cbd5e1" stroke-width="2"/>
  <text x="600" y="679" text-anchor="middle" font-family="Segoe UI, Arial" font-size="20" font-weight="700" fill="#0f172a">Reporting & Metrics</text>
  <text x="600" y="706" text-anchor="middle" font-family="Segoe UI, Arial" font-size="14" fill="#475569">KPIs • Dashboards • Decision support</text>

  <rect x="65" y="245" width="250" height="205" rx="18" fill="#eef2ff" stroke="#c7d2fe"/>
  <text x="190" y="278" text-anchor="middle" font-family="Segoe UI, Arial" font-size="18" font-weight="700" fill="#1e293b">Governance Lens</text>
  <text x="190" y="315" text-anchor="middle" font-family="Segoe UI, Arial" font-size="14" fill="#475569">Risk oversight</text>
  <text x="190" y="345" text-anchor="middle" font-family="Segoe UI, Arial" font-size="14" fill="#475569">Policy alignment</text>
  <text x="190" y="375" text-anchor="middle" font-family="Segoe UI, Arial" font-size="14" fill="#475569">Accountability</text>
  <text x="190" y="405" text-anchor="middle" font-family="Segoe UI, Arial" font-size="14" fill="#475569">Transparency</text>

  <rect x="885" y="245" width="250" height="205" rx="18" fill="#ecfeff" stroke="#a5f3fc"/>
  <text x="1010" y="278" text-anchor="middle" font-family="Segoe UI, Arial" font-size="18" font-weight="700" fill="#1e293b">Analytics Lens</text>
  <text x="1010" y="315" text-anchor="middle" font-family="Segoe UI, Arial" font-size="14" fill="#475569">Trends</text>
  <text x="1010" y="345" text-anchor="middle" font-family="Segoe UI, Arial" font-size="14" fill="#475569">Completeness</text>
  <text x="1010" y="375" text-anchor="middle" font-family="Segoe UI, Arial" font-size="14" fill="#475569">Exceptions</text>
  <text x="1010" y="405" text-anchor="middle" font-family="Segoe UI, Arial" font-size="14" fill="#475569">Operational insight</text>
</svg>
